<?xml version="1.0" encoding="UTF-8"?>
<svg xmlns="http://www.w3.org/2000/svg" xmlns:xlink="http://www.w3.org/1999/xlink" version="1.1" viewBox="0 0 3446 1248">
  <!-- Generator: Adobe Illustrator 30.3.0, SVG Export Plug-In . SVG Version: 2.1.3 Build 182)  -->
  <defs>
    <style>
      .st0 {
        fill: #e97a46;
      }

      .st1 {
        fill: #e97844;
      }

      .st2 {
        fill: #fff;
      }

      .st3 {
        opacity: .24;
      }

      .st4 {
        display: none;
      }

      .st5 {
        fill: #e97742;
      }
    </style>
  </defs>
  <g id="Camada_1">
    <path d="M1503.15,718.49l7.08,2.74c1.52.59,1.74,4,1.9,7.99h-106.01c-.12-2.86-.44-6.88.68-7.33l6.91-2.76c7.72-3.09,13.39-13.1,13.38-22.76l-.15-124.72c-.02-12.73-5.94-25.77-16.94-31.27-28.88-14.45-56,17.37-55.96,24.08l.81,131.87c.06,9.6,6.07,19.8,13.33,22.75l7.14,2.91c1.52.62.64,6.29.14,7.25h-104.94c-.58-.97-1.51-6.65.04-7.28l7.18-2.93c7.53-3.07,13.02-13.33,13.03-23.18l.04-137.78c0-12.26-8.63-22.31-20.39-22.54l-.04-7.21,82.16-21.37,1.34,36.21c23.93-29.28,59.38-42.1,94.83-31.97,17.89,5.12,30.42,18.05,36.8,36.03,22.02-30.69,57.26-44.8,92.85-37.54,21.39,4.36,37.86,19.25,43.73,40.33,3.4,12.22,4.04,25.02,4.11,38.02l.6,108.72c.05,9.14,6.08,19.87,13.33,22.4l6.08,2.12c1.53.53,1.78,3.92,1.95,7.98l-105.44.02c-.44-1.07-1.45-6.71.05-7.32l7.02-2.86c7.41-3.02,13.15-13.17,13.15-22.78v-127c0-13.49-8.8-27.1-21.15-30.87-20.72-6.32-40.13,4.58-51.54,22.71l.64,135.24c.04,8.32,5.65,19.53,12.26,22.09Z"/>
    <path d="M455.61,716.28l-4.32-84.83c2.06-1.66,8.81-1.74,11.32-.16,13.48,39.76,33.07,88.2,77.32,89.18,16.14.36,32.31-5.73,41.2-19.33,16.43-25.14,9.73-58.08-13.62-76.68-43.92-34.97-118.48-54.92-113.85-132.57,1.19-19.91,7.07-38.84,20.99-53.3,37.52-38.95,103.69-35.82,152.2-13.61l2.62,78.01-10.74.4c-5.7-19.8-12.31-36.06-22.55-53.73-14.81-25.56-50.26-35.43-73.73-15.09-20.87,18.08-18.32,51.49.58,70.22,39.51,39.16,122.1,51.24,124.4,133.13,1.37,48.85-32.04,87.98-80.49,95.46-37.53,5.8-74.39-1.02-111.33-17.1Z"/>
    <path d="M1652.02,681.04c-.32-41.43,33.67-52.11,62.27-64.57l57.2-24.92-3.17-47.5c-.75-11.28-8.56-19.86-17.96-21.64-10.41-1.97-21.38,1.06-26.82,11.48-4.16,7.98-6.15,19.18-6.71,28.45-1,16.29-13.08,25.61-28.93,24.38s-26.73-12.62-23.98-28.99c7.36-43.85,74.55-58.69,123.39-45.08,26.18,7.3,44.24,29.51,44.54,57.61l1.29,121.88c.06,5.67,5.14,12.95,8.97,14.84,10.94,5.39,19.22-12.89,23.09.71-13.8,23.81-45.05,34.51-70.69,21.9-11.05-5.43-17.3-15.51-21.05-27.97-21.26,31.95-63.63,43.61-97.2,24.2-16.6-9.6-24.12-27.43-24.26-44.77ZM1749.01,704.71c8.4-2.82,18.09-10.31,22.08-18.07l-.03-80.6-42.8,26.34c-14.87,16.1-20.12,39.43-10.28,59.57,5.58,11.42,18.84,16.86,31.04,12.76Z"/>
    <path d="M1149.58,671.45c12.9,17.19,33.14,24.71,53.04,23.92,41.72-1.65,51.39-34.83,58.36-31.43,2.77,1.35,3.31,5.39,2.03,8.59-17,42.36-55.75,66.91-101.09,62.01-37.63-4.07-68.58-26.56-82.52-62.08-12.03-30.65-12.82-64.19-2.5-95.42,15.58-47.15,60.04-74.23,109.16-68.85,50.11,5.48,78.15,41.57,76.17,91.91l-130.63.04c-1.21,25.03,2.27,50.39,17.98,71.31ZM1204.22,586.4c1.52-28.5-6.91-63.69-31.28-64.86-28.3-1.36-39.06,33.76-40.99,64.84l72.27.02Z"/>
    <path d="M910.48,711.22c-33.53,34.6-98.17,27.24-140.24,6.88l-3.2-62.91,10.46-.27c7.67,18.85,16.84,35.87,30.81,50.67,15.66,16.59,40.93,22.31,59.71,8.52,9.2-6.75,11.66-18.91,9.51-30.27-1.58-8.32-8.64-18.28-18.23-23.33l-54.81-28.85c-15.24-8.02-27.73-20.8-33.02-36.5-12.36-36.71,6.49-72.24,43.47-82.68,32.37-9.13,66.53-5.13,97.74,9.58l1.68,56.47-9.66-.75c-6.41-15.13-13.7-28.25-23.77-40.73-13.34-16.54-37.07-21.73-54.91-8.93-7.36,5.28-10.3,15.48-9.24,24.2,4.18,34.18,74.8,39.83,100.38,76.67,17.17,24.71,14.83,60.03-6.68,82.24Z"/>
    <path d="M1952.66,704.64c25.92,11.57,35.65-22.58,41.33-3.29-14.55,23.38-38.59,35.82-66.16,33.22-29-.32-51.61-22.77-51.72-52.9l-.59-155.79-23.56-.62-.17-7.82c-.05-2.1,4.29-3.67,6.92-4.65,31.58-11.77,56.9-33.68,68.24-65.73l11-.75.17,63.8,50.95-.05.31,15.49-51.31.26.58,155.24c.04,10.51,7.1,20.51,14,23.59Z"/>
    <path d="M1030,702.61c12.74,9.42,28.86,2.52,37.56-7.38,1.49-.4,5.21,1.35,6,2.92,5.58,11.11-45.95,57.4-94.65,26.72-13.43-8.46-21.77-25.89-21.8-42.18l-.26-156.88-24.69-.38.13-7.95c.08-4.7,51.7-13.3,73.39-63.67l4.03-7.42c.95-1.76,8.23.18,9.11,1.66l.15,61.71,51.25.49v15.24s-51.37.11-51.37.11l.12,152.83c0,8.44,4.28,19.2,11.02,24.18Z"/>
    <path d="M652.61,729.23c-.45-2.64-1.03-6.86.1-7.31l6.98-2.8c8.42-3.38,13.5-14.23,13.49-24.47l-.12-134.92c0-10.47-6.18-20.8-15.05-23.31l-6.04-1.71c-1.27-.36-.1-5.65.32-6.46l83.54-21.43.42,188.47c.02,10.23,6.01,21.07,13.94,23.89l5.89,2.1c1.46.52,1.43,4.21,1.45,7.96h-104.9Z"/>
    <circle cx="703.69" cy="446.13" r="36.8"/>
    <path class="st2" d="M3335.64,1184.48c-9.12-24.37-23.53-39.33-48.21-47.83,25.05-9.73,39.19-22.85,47.89-49.04,8.62,24.88,23.61,40.33,48.89,49.05-25.55,8.79-39.16,22.31-48.57,47.82Z"/>
    <path class="st5" d="M2708.23,741.49c4.06-3.93,7.61-7.94,8.91-14.88-18.8-3.13-20.27-16.71-22.34-33.73-5.46-44.85-7.65-90.83-25.83-133.05-14.12-32.8-15.38-32.27-41.11-10.12-1.52-.64-4.17-1.07-4.36-1.99-3.85-19.05,12.97-41.49,38.47-49.97,19.26-6.4,31.56,2.77,40.84,19.48,24.63,44.34,22.04,94.1,29.24,141.9,1.88,12.46,3.15,25.02,5.44,43.46,32.14-51.05,62.43-96.89,61.12-155.59-.15-6.73-1.18-13.45-1.29-20.19-.27-15.61,3.12-30.75,22.08-30.14,16.05.51,23.57,11.72,25.42,28.77,4.09,37.88-13.62,69.42-30.96,99.15-26.76,45.89-57.84,89.45-89.37,132.33-23.07,31.38-50.44,59.43-94.14,58.86-11.4-.15-27.8,5.31-30.34-13.14-2.8-20.4,13.16-21.2,26.9-19.94,29.45,2.72,51.97-8.61,71.26-30.5,3.24-3.68,6.55-7.3,10.07-10.71Z"/>
    <path class="st0" d="M2468.24,817.56c-128.92,1.48-254.1,11.71-378.66,28.34-34.18,4.56-67.51,16.38-100.84,26.22-11.66,3.45-21.94,5.09-26.35-7.72-4.63-13.4,4.82-17.74,16.56-21.21,84.34-24.84,170.39-38.7,257.98-44.36,125.54-8.1,250.99-14.96,376.84-5.49,70.52,5.31,141.07,9.87,211.23,19.05,3.14.41,21.06,3.88,23.84,4.97,3.92,1.53,24.62-.27,21.6,19.9-3.74,24.95-25.97,8.71-39.28,7-119.48-15.3-239.32-24.73-362.9-26.71Z"/>
    <path class="st1" d="M2536.75,597.58c3.94,2.49,7.72,5.25,11.25,8.29,17.26,14.83,35.53,25.85,45.45,47.22,11.03,23.75.08,60.43-31.48,75.41-30.32,14.39-62.08,13.98-93.22,1-12.13-5.06-20.84-13.83-24.28-26.89-3.03-11.5-1.56-21.63,9.34-28.83,12.89-8.52,18.49,1.42,24.11,9.43,12.42,17.71,12.72,27.09,27.64,30.43,15.3,3.43,33.03,6.5,42.98-11.05,10.34-18.23,3.53-34.2-11.04-46.83-16.3-14.13-35.13-24.8-50.97-40-35-33.57-28.69-85.2,24.05-101.89,36.75-11.63,78.24-2.93,93.68,21.28,8.94,14.03,5.26,23.4-6.44,32.1-13.97,10.39-18.79-1.66-25.26-10.25-6.49-8.61-11.55-18.38-22.63-22.93-15.4-6.33-28-1.51-39.1,8.66-12.48,11.44-4.99,21.8,1.55,33.51,5.72,10.22,14.8,15.3,24.39,21.35Z"/>
    <path class="st1" d="M2420.58,704.56c-39.91,2.6-39.22,2.76-30.41-36.82,6.94-31.14,12.37-62.64,17.57-94.12,3.34-20.2,5.04-40.66,7.65-62.4-15.89.08-26.61,14.37-40.82,5.2-34.53-22.3-65.73-9.47-95.59,10.7-52.84,35.71-76.24,84.32-74.23,145.17.64,19.32,8.09,38.02,22.07,51.37,30.37,29,67.24,14.04,115.78-45.83,0,15.14-2.43,28.02.6,39.45,4.06,15.31,18.73,17.23,32.45,16.09,37.02-3.07,46.97-9.74,44.92-28.81ZM2364.94,563.66c-7.2,42.5-24.86,79.63-49.78,113.69-8.55,11.69-17.7,24.19-32.84,25.63-9.22.87-18-4.43-21.68-12.93-18.65-43.06-5.06-82.3,17.32-120.35,13.9-23.65,32.69-40.06,62.75-36.87,18.73,1.99,28.1,7.96,24.22,30.83Z"/>
    <path class="st1" d="M2144.8,687.33c-15.18,13.38-31.91,21.91-52.74,21.23-24.19-.79-38.66-19.81-41.77-50.97-2.58-25.78,16.21-22.28,31.59-25.24,8.33-1.6,16.24-5.28,26.3-8.56,23.09-6.14,41.05-17.54,56.7-31.86,21.91-20.05,24.31-38.19,10.49-63.07-13.5-24.3-52.05-33.9-84.38-20.97-59.42,23.77-87.42,69.66-90.75,129.95-1.41,25.59,3.85,51.82,23.46,72.23,34.36,35.76,91.96,33.33,135.08-6.4,5.86-5.4,17.85-11.7,7.44-22.2-9.19-9.27-15.86.97-21.41,5.86ZM2060.4,583.32c2.57-9.47,6.27-18.63,11.39-27.05,4-6.58,8.02-12.7,14.31-17.41,15.38-11.51,34.27-21.3,47.87-5.86,11.34,12.88,7.23,33.03-5.67,48.31-19.01,22.53-46.53,29.13-73.96,40.02-3.33-13.75,2.65-25.44,6.06-38.01Z"/>
  </g>
</svg>
